<svg xmlns="http://www.w3.org/2000/svg" version="1.1" xmlns:xlink="http://www.w3.org/1999/xlink" xmlns:svgjs="http://svgjs.dev/svgjs" width="1000" height="1885" viewBox="0 0 1000 1885"><g transform="matrix(1,0,0,1,0.862905437588438,0.7631578947367643)"><svg viewBox="0 0 131 247" data-background-color="#fdf8f1" preserveAspectRatio="xMidYMid meet" height="1885" width="1000" xmlns="http://www.w3.org/2000/svg" xmlns:xlink="http://www.w3.org/1999/xlink"><g id="tight-bounds" transform="matrix(1,0,0,1,-0.11304061232408458,-0.09999999999999432)"><svg viewBox="0 0 131.22607683352734 247.2" height="247.2" width="131.22607683352734"><g><svg viewBox="0 0 131.22607683352734 247.2" height="247.2" width="131.22607683352734"><g><svg viewBox="0 0 131.22607683352734 247.2" height="247.2" width="131.22607683352734"><g><svg viewBox="0 0 131.22607683352734 247.2" height="247.2" width="131.22607683352734"><g><svg viewBox="0 0 131.22607683352734 247.2" height="247.2" width="131.22607683352734"><g transform="matrix(1,0,0,1,0,0)"><svg width="131.22607683352734" viewBox="0.75 -42.95000076293945 22.799999237060547 42.95000076293945" height="247.2" data-palette-color="#fa4238"><path d="M9.1 0L0.75 0 4.9-42.95 19.45-42.95 23.55 0 15.4 0 14.8-6.95 9.6-6.95 9.1 0ZM11.85-35.65L10.25-13.8 14.15-13.8 12.25-35.65 11.85-35.65Z" opacity="1" transform="matrix(1,0,0,1,0,0)" fill="#fa4238" class="undefined-text-0" data-fill-palette-color="primary" id="text-0"></path></svg></g></svg></g></svg></g></svg></g><g></g></svg></g><defs></defs></svg><rect width="131.22607683352734" height="247.2" fill="none" stroke="none" visibility="hidden"></rect></g></svg></g></svg>